<?xml version="1.0" encoding="UTF-8"?>
<svg xmlns="http://www.w3.org/2000/svg" xmlns:xlink="http://www.w3.org/1999/xlink" width="4500" height="3000" viewBox="0 0 4500 3000">
<rect x="-450" y="-300" width="5400" height="3600" fill="rgb(13.719177%, 20.384216%, 23.535156%)" fill-opacity="1"/>
<path fill-rule="nonzero" fill="rgb(100%, 100%, 100%)" fill-opacity="1" d="M 1765.730469 1012.5 L 1765.730469 1241.238281 L 1879.578125 1317.878906 L 1879.578125 1226.339844 C 2091.421875 1368.820312 2259.078125 1481.871094 2453.949219 1612.890625 L 2582.46875 1526.308594 L 2582.46875 1389.039062 L 2453.949219 1475.609375 C 2218.351562 1317.121094 1969.640625 1149.730469 1765.730469 1012.5 Z M 2734.269531 1012.570312 L 2283.910156 1315.511719 L 2385.910156 1384.148438 L 2620.421875 1226.339844 L 2620.421875 1987.5 C 2734.269531 1910.898438 2848.128906 1834.320312 2961.980469 1757.71875 L 2961.980469 1133.691406 L 2772.21875 1261.398438 L 2772.21875 1398.601562 L 2848.128906 1347.53125 L 2848.128906 1697.089844 C 2810.121094 1722.53125 2772.210938 1748.109375 2734.269531 1773.660156 Z M 1538.019531 1133.769531 L 1538.019531 1757.71875 C 1651.828125 1834.371094 1765.71875 1910.929688 1879.578125 1987.5 L 1879.578125 1546.769531 L 1765.730469 1470.128906 L 1765.730469 1773.660156 C 1727.789062 1748.121094 1689.839844 1722.589844 1651.878906 1697.089844 L 1651.878906 1347.53125 C 1783.511719 1436.429688 1914.429688 1524.230469 2046.058594 1612.960938 L 2216.019531 1498.519531 L 2114.019531 1429.878906 L 2046.058594 1475.691406 C 1876.738281 1361.671875 1707.371094 1247.738281 1538.019531 1133.769531 Z M 1538.019531 1133.769531 "/>
</svg>
